<svg width="101" height="27" viewBox="0 0 101 27" fill="none" xmlns="http://www.w3.org/2000/svg">
<path d="M0.03125 25.5104V0.0599976H5.4191L8.71323 9.04906C9.13197 10.2495 9.46697 11.5615 9.8578 12.8178H9.99738C10.4161 11.5615 10.7511 10.2495 11.1419 9.04906L14.3244 0.0599976H19.7402V22.0208L15.1898 23.184V13.739C15.1898 11.6732 15.5806 8.57448 15.8598 6.53659H15.7202L13.9894 11.5057L11.1978 19.0989L8.10081 19.6945L5.64243 11.5057L3.96745 6.53659H3.85579C4.10703 8.57448 4.49786 11.6732 4.49786 13.739V24.3472L0.03125 25.5104Z" fill="#E50914"/>
<path d="M28.1138 22.0208V13.5157L21.8605 0.0599976H27.1646L28.8954 4.69411C29.4538 6.25742 29.9842 7.70907 30.5704 9.32822H30.6821C31.2683 7.70907 31.8266 6.25742 32.4129 4.69411L34.1437 0.0599976H39.364L33.0829 13.5157V20.8577L28.1138 22.0208Z" fill="#E50914"/>
<path d="M41.4968 20.8577V0.0599976H54.7571V4.21953H46.4938V8.76989H53.5846V12.9294H46.4938V20.8577H41.4968Z" fill="#E50914"/>
<path d="M58.3448 20.8577V0.0599976H63.3418V16.6702H71.4375V22.0208L58.3448 20.8577Z" fill="#E50914"/>
<path d="M75.0291 22.5156V0.0599976H80.0261V23.184L75.0291 22.5156Z" fill="#E50914"/>
<path d="M82.5444 23.184L88.3603 11.5522L83.0581 0.0599976H88.6135L90.2884 3.80079C90.763 4.77786 91.2097 5.8666 91.7959 7.20658H91.9076C92.3822 5.8666 92.8288 4.77786 93.2476 3.80079L94.7551 0.0599976H100.031L94.7551 11.5522L99.9921 26.6736L94.6713 25.0266L93.2476 20.8577C92.7451 19.7689 91.9355 16.3259 91.3772 15.0418C90.9026 16.3259 90.6866 17.3681 89.5234 20.8577L88.446 24.3472L82.5444 23.184Z" fill="#E50914"/>
</svg>
